<?xml version="1.0" encoding="UTF-8"?>
<svg id="_Шар_1" data-name="Шар_1" xmlns="http://www.w3.org/2000/svg" version="1.1" viewBox="0 0 380 380">
  <!-- Generator: Adobe Illustrator 29.8.2, SVG Export Plug-In . SVG Version: 2.1.1 Build 3)  -->
  <defs>
    <style>
      .st0 {
        fill: #b1463d;
      }
    </style>
  </defs>
  <path class="st0" d="M353.92,109.38c-6.24-12.47-13.97-24.18-23.01-34.89-10.17-12.16-21.97-22.87-34.98-31.82-1.81-1.27-3.66-2.49-5.51-3.71-28.38-18.03-61.24-27.62-95.05-27.62-1.76,0-3.53.05-5.29.09-9.67.27-19.34,1.36-28.66,3.21-10.71,2.03-21.38,5.2-31.77,9.31-2.67,1.04-5.29,2.21-7.95,3.39-29.06,13.33-54.1,34.35-72.32,60.79-6.06,8.68-11.34,18.08-15.77,28.02-7.82,17.4-12.7,35.84-14.6,54.92-.41,4.29-.63,8.77-.72,13.24-.14,1.4-.14,2.8-.14,4.25,0,26.71,5.88,52.52,17.4,76.66,5.2,10.67,11.44,20.93,18.62,30.42,13.02,17.04,28.75,31.46,46.73,42.8.45.32.95.63,1.49.95l.81.5c26.44,16.09,56.68,24.99,87.46,25.76,1.58.04,3.12.09,4.7.09,13.65,0,27.3-1.58,40.54-4.7,8.14-1.85,16.23-4.38,24.14-7.5,2.53-.99,5.02-2.03,7.55-3.16,28.2-12.61,52.7-32.45,70.87-57.36,7.1-9.67,13.2-20.07,18.17-30.96,7.05-15.5,11.8-31.91,14.15-48.63.54-3.43.86-6.42,1.08-9.27.5-5.24.72-10.3.72-15.59.01-27.8-6.27-54.42-18.66-79.19ZM331.78,170.12c-7.91-5.97-16.36-11.25-25.31-15.77-11.89-6.06-24.54-10.71-37.88-13.83-8-1.9-16.18-3.21-24.63-3.89,10.12,11.21,18.76,23.77,25.63,37.42,3.21,6.28,6.01,12.88,8.36,19.57,3.93,10.89,6.69,22.28,8.27,34.03,1.04,7.55,1.58,15.28,1.58,23.14s-.59,16.05-1.67,23.86c-1.22,9.04-3.21,17.85-5.83,26.35-1.63,5.33-3.53,10.58-5.69,15.68,1.31-5.11,2.35-10.31,3.16-15.55,1.36-8.59,2.03-17.4,2.03-26.35,0-13.42-1.58-26.44-4.47-38.96-2.44-10.53-5.88-20.61-10.17-30.28-.27.27-.54.5-.81.72-4.47,16.72-11.34,32.45-20.29,46.69-3.34,5.33-6.96,10.49-10.85,15.37-6.51,8.23-13.74,15.82-21.65,22.69-7.73,6.82-16.09,12.88-24.99,18.17-10.35,6.15-21.29,11.25-32.86,15.14-12.11,4.02-24.77,6.78-37.92,8.05,12.02-3.03,23.5-7.32,34.35-12.75,10.89-5.42,21.06-12.02,30.46-19.53,5.79-4.7,11.3-9.76,16.45-15.14,6.78-7.05,12.93-14.64,18.44-22.73-.14-.05-.23-.09-.36-.14-11.89,2.62-24.23,4.02-36.93,4.02-4.25,0-8.45-.14-12.61-.5-.45,0-.9-.05-1.31-.09-15.01-1.18-29.42-4.34-43.07-9.18-16.41-5.79-31.68-14.06-45.38-24.32-7.23-5.42-13.97-11.39-20.2-17.85-.72-.72-1.45-1.45-2.12-2.21.77.59,1.54,1.13,2.31,1.72,7.14,5.11,14.6,9.67,22.42,13.6,12.66,6.42,26.17,11.25,40.36,14.37,8.09,1.81,16.45,2.98,24.95,3.57-10.31-11.39-19.12-24.14-26.12-38.01-3.39-6.78-6.37-13.79-8.9-21.06-3.39-9.94-5.97-20.34-7.46-31.01-1.18-8.05-1.81-16.27-1.81-24.63,0-8.95.72-17.76,2.03-26.35,1.27-8.14,3.12-16.14,5.47-23.86,2.31-7.5,5.15-14.83,8.45-21.88-1.99,7.05-3.48,14.33-4.47,21.69-1.13,7.82-1.67,15.77-1.67,23.86,0,14.24,1.72,28.07,5.02,41.31,2.31,9.4,5.42,18.49,9.27,27.21,4.25-15.19,10.53-29.51,18.53-42.67,4.16-6.82,8.72-13.29,13.79-19.39,5.92-7.28,12.47-14.06,19.53-20.25,10.94-9.63,23.14-17.85,36.34-24.41,7.01-3.57,14.33-6.6,21.88-9.13,12.38-4.16,25.4-6.92,38.87-8.14-11.8,3.93-23.01,9.08-33.49,15.32-6.82,4.07-13.29,8.54-19.43,13.51-8.36,6.64-16.04,14.1-22.96,22.19-4.93,5.74-9.49,11.8-13.65,18.21,9.04-1.49,18.26-2.26,27.71-2.26,3.8,0,7.55.14,11.3.41,5.29.32,10.49.86,15.64,1.72,9.81,1.54,19.34,3.89,28.47,7.05,15.86,5.42,30.69,13.15,44.07,22.73,8.32,5.97,16.04,12.7,23.14,20.02,4.16,4.25,8.09,8.72,11.75,13.38-4.21-3.69-8.51-7.3-13.07-10.65Z"/>
</svg>